<svg width="266" height="243" viewBox="0 0 266 243" fill="none" xmlns="http://www.w3.org/2000/svg">
<g clip-path="url(#clip0_756_31)">
<path d="M2.57281 120.899C25.7645 97.885 53.465 79.1495 83.8205 66.9257C97.7051 61.3352 112.688 57.2207 127.789 58.177C142.359 59.1001 155.973 65.3273 166.285 75.6588C176.374 85.7666 182.996 99.3093 183.769 113.646C184.535 127.818 179.996 142.105 171.52 153.445C167.254 159.152 161.758 164.582 155.461 168.025C152.311 169.748 148.295 171.265 144.703 170.073C140.553 168.696 139.305 164.439 139.59 160.482C140.14 152.807 144.523 144.906 147.926 138.195C152.01 130.142 156.896 122.394 163.046 115.75C174.616 103.253 190.789 94.6923 208.175 96.6749C223.892 98.4667 238.427 107.98 245.911 121.959C246.56 123.169 248.471 122.222 247.822 121.01C240.978 108.227 228.572 99.0035 214.498 95.6416C199.301 92.0123 184.084 96.0557 171.619 105.196C156.353 116.393 146.649 133.664 139.849 150.985C137.796 156.214 135.768 163.262 139.179 168.39C142.823 173.87 149.846 173.116 155.07 170.628C168.285 164.335 178.089 150.284 182.658 136.756C187.369 122.804 187.078 107.495 181.255 93.9114C175.25 79.9044 163.938 68.2174 150.173 61.6947C135.882 54.9231 119.745 54.737 104.531 58.1116C85.6042 62.3101 67.5166 71.0876 50.9031 80.8735C32.7887 91.5437 16.0827 104.489 1.16328 119.295C0.193226 120.259 1.59869 121.866 2.57281 120.899Z" fill="#FED0CE"/>
<path d="M236.551 125.593C239.617 127.756 242.685 129.919 245.75 132.083C247.341 133.205 248.931 134.327 250.521 135.448C251.618 136.223 252.877 137.394 254.323 137.294C255.861 137.187 256.488 135.796 256.627 134.438C256.815 132.601 256.794 130.719 256.876 128.874C257.042 125.042 257.209 121.212 257.375 117.381C257.435 116.012 255.304 115.894 255.244 117.269C255.105 120.473 254.965 123.678 254.826 126.882C254.753 128.554 254.68 130.224 254.608 131.897C254.576 132.648 254.567 133.406 254.507 134.157C254.432 135.069 254.232 135.363 253.408 134.862C250.753 133.245 248.268 131.25 245.729 129.459C243.06 127.576 240.391 125.694 237.721 123.809C236.598 123.017 235.43 124.8 236.552 125.591L236.551 125.593Z" fill="#FED0CE"/>
</g>
<defs>
<clipPath id="clip0_756_31">
<rect width="143.99" height="222.446" fill="white" transform="translate(0.410034 120.396) rotate(-56.7321)"/>
</clipPath>
</defs>
</svg>
