<svg width="27" height="19" viewBox="0 0 27 19" fill="none" xmlns="http://www.w3.org/2000/svg">
<path d="M6.14186 15.1755C7.31036 15.1755 8.44725 15.3124 9.55254 15.5863C10.6578 15.8599 11.7478 16.2787 12.8224 16.8426V3.54025C11.8581 2.86203 10.797 2.34349 9.639 1.98462C8.481 1.62596 7.31529 1.44663 6.14186 1.44663C5.33593 1.44663 4.59129 1.52504 3.90793 1.68184C3.22457 1.83865 2.49889 2.05357 1.73089 2.3266C1.63189 2.35932 1.56182 2.40628 1.52068 2.46747C1.47954 2.52887 1.45896 2.59633 1.45896 2.66985V15.6194C1.45896 15.7257 1.50011 15.8053 1.58239 15.8585C1.66489 15.9116 1.75554 15.9218 1.85432 15.8891C2.40332 15.6487 3.05368 15.4697 3.80539 15.352C4.55689 15.2343 5.33571 15.1755 6.14186 15.1755ZM14.2814 16.8426C15.361 16.2787 16.4315 15.8599 17.4931 15.5863C18.5547 15.3124 19.6764 15.1755 20.8581 15.1755C21.6643 15.1755 22.4518 15.231 23.2206 15.3421C23.9897 15.4535 24.6314 15.5949 25.1457 15.7664C25.2445 15.8074 25.3351 15.8013 25.4176 15.7482C25.4999 15.6951 25.541 15.6112 25.541 15.4967V2.66985C25.541 2.59633 25.5205 2.531 25.4793 2.47384C25.4382 2.41647 25.3681 2.36739 25.2691 2.3266C24.5489 2.01447 23.8371 1.78978 23.1339 1.65252C22.4304 1.51526 21.6718 1.44663 20.8581 1.44663C19.6764 1.44663 18.5238 1.62596 17.4005 1.98462C16.277 2.34349 15.2373 2.86203 14.2814 3.54025V16.8426ZM13.5456 19C12.4571 18.2417 11.2823 17.6591 10.0212 17.2522C8.76011 16.8451 7.467 16.6415 6.14186 16.6415C5.44607 16.6415 4.76282 16.7127 4.09211 16.8551C3.42118 16.9972 2.74779 17.1819 2.07193 17.409C1.57693 17.6264 1.10786 17.5802 0.664714 17.2707C0.221571 16.9611 0 16.53 0 15.9773V2.58157C0 2.24649 0.0832499 1.9384 0.24975 1.6573C0.41625 1.3762 0.65775 1.16457 0.97425 1.02243C1.78361 0.670995 2.62296 0.412732 3.49232 0.24764C4.36168 0.082547 5.24486 0 6.14186 0C7.4745 0 8.76825 0.184747 10.0231 0.55424C11.2778 0.923521 12.4541 1.47999 13.5521 2.22365C14.6284 1.47999 15.7872 0.923521 17.0283 0.55424C18.2695 0.184747 19.5461 0 20.8581 0C21.7506 0 22.6294 0.082547 23.4945 0.24764C24.3596 0.412732 25.1968 0.670995 26.0061 1.02243C26.3224 1.16287 26.5671 1.37407 26.7403 1.65603C26.9134 1.93798 27 2.24649 27 2.58157V15.9773C27 16.5536 26.761 16.9963 26.2829 17.3054C25.8048 17.6148 25.3218 17.6411 24.8339 17.3845C24.1878 17.1524 23.5326 16.9707 22.8684 16.8391C22.2041 16.7074 21.534 16.6415 20.8581 16.6415C19.5309 16.6415 18.2524 16.8483 17.0229 17.2617C15.7935 17.6754 14.6344 18.2549 13.5456 19Z" fill="#113A3A"/>
</svg>
