<?xml version="1.0" encoding="UTF-8"?>
<svg id="Capa_2" xmlns="http://www.w3.org/2000/svg" viewBox="0 0 839.02 114.03">
  <defs>
    <style>
      .cls-1 {
        fill: #fed0ce;
      }
    </style>
  </defs>
  <g id="Capa_1-2" data-name="Capa_1">
    <g>
      <g>
        <path class="cls-1" d="M209.32,18.58c0,5.24-.09,10.49.05,15.72.05,1.95-.58,2.34-2.43,2.36-14.57.18-28.69,2.62-41.83,9.18-18.34,9.16-30.14,23.98-36.91,43.03-2.71,7.63-4.4,15.47-4.99,23.54-.1,1.32-.59,1.65-1.82,1.6-11.08,0-20.94.02-32.11.02-2.17,0-2.38-2.21-2.32-3.33.43-7.91,1.69-15.68,3.74-23.33,5.14-19.17,13.96-36.4,27.53-51.04,16.45-17.75,36.94-28.21,60.55-32.97,9.37-1.89,18.84-2.71,28.39-2.86,1.69-.03,2.22.4,2.18,2.14-.12,5.32-.04,10.63-.04,15.95Z"/>
        <path class="cls-1" d="M0,33.74C0,23.28,0,12.83.01,2.37.02,1.13,1,.06,2.24.05c0,0,.02,0,.02,0C29.8.04,57.34.06,84.88,0c1.99,0,2.49.41,2.46,2.51-.16,10.25-.14,20.51-.04,30.77.02,2.12-.45,2.85-2.73,2.84-27.38-.08-54.77-.05-82.15-.06,0,0-.02,0-.02,0C1.08,36.06,0,35.05,0,33.74Z"/>
      </g>
      <g>
        <g>
          <rect class="cls-1" x="330.44" y=".11" width="37.4" height="113.8"/>
          <path class="cls-1" d="M670.13.11h-34.79l-51.74,113.8h38.7l8.72-20.95h42.95l8.73,20.95h39.34L670.13.11ZM662.29,64.48h-19.58l9.79-23.65,9.79,23.65Z"/>
          <polygon class="cls-1" points="266.96 83.73 319.94 83.73 319.94 113.91 229.56 113.91 229.56 .11 266.96 .11 266.96 83.73"/>
          <polygon class="cls-1" points="530.58 83.73 583.56 83.73 583.56 113.91 493.18 113.91 493.18 .11 530.58 .11 530.58 83.73"/>
          <polygon class="cls-1" points="377.86 .11 483.32 .11 483.32 30.29 449.37 30.29 449.37 113.91 411.97 113.91 411.97 30.29 377.86 30.29 377.86 .11"/>
        </g>
        <path class="cls-1" d="M837.51,71.37c-1.01-3.07-2.52-5.89-4.52-8.44-2.82-3.57-6.42-6.49-10.74-8.72,2.83-2.12,5.18-4.63,7.02-7.52,2.89-4.53,4.36-9.71,4.36-15.4,0-9.63-4.17-17.38-12.41-23.03-7.87-5.41-19.33-8.15-34.05-8.15h-59.79v113.8h62.96c15.33,0,27.3-2.76,35.59-8.19,8.69-5.7,13.09-13.9,13.09-24.38,0-3.56-.51-6.89-1.51-9.97ZM787.8,85.89h-23.33v-15.87h23.33c13.5,0,13.5,5.76,13.5,7.93s0,7.94-13.5,7.94ZM764.47,28.13h18.57c12.86,0,12.86,5.32,12.86,7.32s0,7.47-12.86,7.47h-18.57v-14.79Z"/>
      </g>
    </g>
  </g>
</svg>