<svg width="27" height="27" viewBox="0 0 27 27" fill="none" xmlns="http://www.w3.org/2000/svg">
<path d="M13.5 26.5625C11.6809 26.5625 9.97668 26.2192 8.38741 25.5326C6.79813 24.846 5.4134 23.9148 4.23319 22.739C3.05298 21.5631 2.12531 20.1771 1.45019 18.581C0.775063 16.9846 0.4375 15.2724 0.4375 13.4443C0.4375 11.6252 0.775063 9.92454 1.45019 8.34238C2.12531 6.76021 3.05298 5.38131 4.23319 4.20569C5.4134 3.02983 6.79813 2.10789 8.38741 1.43987C9.97668 0.771624 11.6809 0.4375 13.5 0.4375C15.3191 0.4375 17.0233 0.771624 18.6126 1.43987C20.2019 2.10789 21.5866 3.02983 22.7668 4.20569C23.947 5.38131 24.8747 6.76021 25.5498 8.34238C26.2249 9.92454 26.5625 11.6252 26.5625 13.4443C26.5625 15.2724 26.2249 16.9846 25.5498 18.581C24.8747 20.1771 23.947 21.5631 22.7668 22.739C21.5866 23.9148 20.2019 24.846 18.6126 25.5326C17.0233 26.2192 15.3191 26.5625 13.5 26.5625ZM13.5 25.071C14.355 24.149 15.0583 23.1487 15.6099 22.07C16.1618 20.9911 16.614 19.7271 16.9667 18.2781H10.0546C10.4018 19.7061 10.8513 20.9677 11.4031 22.0632C11.955 23.1588 12.6539 24.1614 13.5 25.071ZM11.3186 24.7908C10.6751 23.9553 10.1052 22.9827 9.60909 21.8731C9.11272 20.7632 8.72268 19.5649 8.43897 18.2781H2.96544C3.84498 20.0551 4.95025 21.4583 6.28125 22.4877C7.61225 23.5173 9.29136 24.285 11.3186 24.7908ZM15.7158 24.7698C17.5157 24.3661 19.1428 23.6018 20.5971 22.477C22.0514 21.3525 23.1972 19.9529 24.0346 18.2781H18.5823C18.2402 19.5686 17.8268 20.7642 17.3421 21.8652C16.8572 22.9658 16.3151 23.9341 15.7158 24.7698ZM2.46287 16.7182H8.15331C8.06692 16.0905 8.01146 15.5127 7.98694 14.9847C7.96219 14.4567 7.94981 13.9432 7.94981 13.4443C7.94981 12.889 7.96563 12.3638 7.99725 11.8686C8.0291 11.3731 8.08823 10.8372 8.17462 10.2608H2.46287C2.29375 10.7932 2.1739 11.3079 2.10331 11.805C2.03296 12.302 1.99778 12.8485 1.99778 13.4443C1.99778 14.0491 2.03296 14.6105 2.10331 15.1287C2.1739 15.6471 2.29375 16.1769 2.46287 16.7182ZM9.75587 16.7182H17.2654C17.3658 16.0254 17.4319 15.4357 17.4638 14.9489C17.4954 14.4624 17.5112 13.9609 17.5112 13.4443C17.5112 12.9509 17.4954 12.4701 17.4638 12.0019C17.4319 11.534 17.3658 10.9536 17.2654 10.2608H9.75587C9.65527 10.9536 9.58916 11.534 9.55753 12.0019C9.52568 12.4701 9.50975 12.9509 9.50975 13.4443C9.50975 13.9609 9.52568 14.4624 9.55753 14.9489C9.58916 15.4357 9.65527 16.0254 9.75587 16.7182ZM18.8254 16.7182H24.5371C24.7063 16.1769 24.8261 15.6471 24.8967 15.1287C24.967 14.6105 25.0022 14.0491 25.0022 13.4443C25.0022 12.8485 24.967 12.302 24.8967 11.805C24.8261 11.3079 24.7063 10.7932 24.5371 10.2608H18.8598C18.9374 11.0189 18.9921 11.6363 19.0237 12.113C19.0556 12.5899 19.0715 13.0336 19.0715 13.4443C19.0715 13.9574 19.052 14.4616 19.0131 14.9568C18.9743 15.4523 18.9118 16.0394 18.8254 16.7182ZM18.561 8.70091H24.0346C23.2254 6.9432 22.1046 5.50861 20.6723 4.39716C19.2401 3.2857 17.5764 2.55191 15.6814 2.19578C16.3249 3.06134 16.8869 4.03313 17.3672 5.11113C17.8475 6.18913 18.2455 7.38572 18.561 8.70091ZM10.0546 8.70091H17.0011C16.6961 7.4068 16.2435 6.18603 15.6433 5.03859C15.0429 3.89093 14.3284 2.8685 13.5 1.97131C12.7227 2.687 12.0664 3.57101 11.5313 4.62334C10.9962 5.67568 10.504 7.03486 10.0546 8.70091ZM2.96544 8.70091H8.46028C8.74743 7.42811 9.12555 6.25845 9.59466 5.19191C10.0635 4.12536 10.6267 3.13376 11.2842 2.21709C9.38921 2.58193 7.73829 3.31079 6.33144 4.40369C4.92481 5.49681 3.80281 6.92922 2.96544 8.70091Z" fill="#113A3A"/>
</svg>
